<svg width="71" height="86" viewBox="0 0 71 86" fill="none" xmlns="http://www.w3.org/2000/svg">
<g filter="url(#filter0_d_138_4)">
<path d="M33.2913 68.5326C33.163 66.5123 33.0405 64.4861 32.784 62.4658C32.1484 58.297 30.3815 54.757 27.0868 52.102C23.6697 49.319 20.3809 46.4136 15.9491 45.5286C15.3135 45.4006 14.5554 45.0221 14.1764 44.5156C13.6691 43.7587 12.911 42.7456 13.0393 41.9887C13.1676 41.2318 14.1764 40.2187 15.0627 40.0906C26.7078 37.9422 32.1484 29.855 35.3147 19.4913C36.0728 16.9644 36.4518 14.1813 36.9591 11.5322C37.3382 10.6472 37.2099 9.76219 37.5948 9.00529C37.9738 8.37066 38.7319 7.61376 39.2392 7.74185C39.7465 7.74185 40.3763 8.62684 40.7553 9.25565C41.006 9.76219 40.8836 10.391 40.8836 11.0256C40.7553 13.6806 40.6328 16.2075 40.5046 18.8625C40.3763 21.7678 40.1255 24.6731 40.1255 27.5843C39.9972 32.3877 43.0353 35.293 46.8315 37.1911C49.234 38.3265 51.893 38.9611 54.8028 38.5826C56.5755 38.3323 58.3482 38.833 60.2434 39.0892C60.879 39.2173 61.5088 39.3395 61.8878 39.7238C62.3951 40.3584 63.0249 41.2376 63.0249 41.8722C63.0249 43.0076 61.8878 43.1357 60.8732 43.0076C59.2288 42.8795 57.7068 42.7572 56.0624 42.501C53.0243 42.1226 50.2428 42.8795 47.4554 43.8926C46.19 44.3991 44.9247 45.4064 44.289 46.5476C42.8954 48.696 41.5017 50.8444 40.8719 53.2432C39.3558 58.8035 38.3412 64.4919 37.0758 70.0522C36.825 71.1876 36.825 72.3287 36.3177 73.336C36.067 73.9706 35.1806 74.7275 34.6733 74.7275C34.166 74.7275 33.2796 73.8425 33.2796 73.2137C33.1513 71.6999 33.2796 70.0522 33.2796 68.5384L33.2913 68.5326Z" fill="white"/>
<path d="M33.2913 68.5326C33.163 66.5123 33.0405 64.4861 32.784 62.4658C32.1484 58.297 30.3815 54.757 27.0868 52.102C23.6697 49.319 20.3809 46.4136 15.9491 45.5286C15.3135 45.4006 14.5554 45.0221 14.1764 44.5156C13.6691 43.7587 12.911 42.7456 13.0393 41.9887C13.1676 41.2318 14.1764 40.2187 15.0627 40.0906C26.7078 37.9422 32.1484 29.855 35.3147 19.4913C36.0728 16.9644 36.4518 14.1813 36.9591 11.5322C37.3382 10.6472 37.2099 9.76219 37.5948 9.00529C37.9738 8.37066 38.7319 7.61376 39.2392 7.74185C39.7465 7.74185 40.3763 8.62684 40.7553 9.25565C41.006 9.76219 40.8836 10.391 40.8836 11.0256C40.7553 13.6806 40.6328 16.2075 40.5046 18.8625C40.3763 21.7678 40.1255 24.6731 40.1255 27.5843C39.9972 32.3877 43.0353 35.293 46.8315 37.1911C49.234 38.3265 51.893 38.9611 54.8028 38.5826C56.5755 38.3323 58.3482 38.833 60.2434 39.0892C60.879 39.2173 61.5088 39.3395 61.8878 39.7238C62.3951 40.3584 63.0249 41.2376 63.0249 41.8722C63.0249 43.0076 61.8878 43.1357 60.8732 43.0076C59.2288 42.8795 57.7068 42.7572 56.0624 42.501C53.0243 42.1226 50.2428 42.8795 47.4554 43.8926C46.19 44.3991 44.9247 45.4064 44.289 46.5476C42.8954 48.696 41.5017 50.8444 40.8719 53.2432C39.3558 58.8035 38.3412 64.4919 37.0758 70.0522C36.825 71.1876 36.825 72.3287 36.3177 73.336C36.067 73.9706 35.1806 74.7275 34.6733 74.7275C34.166 74.7275 33.2796 73.8425 33.2796 73.2137C33.1513 71.6999 33.2796 70.0522 33.2796 68.5384L33.2913 68.5326Z" stroke="black" stroke-miterlimit="10"/>
</g>
<defs>
<filter id="filter0_d_138_4" x="7.5249" y="7.22754" width="56" height="73" filterUnits="userSpaceOnUse" color-interpolation-filters="sRGB">
<feFlood flood-opacity="0" result="BackgroundImageFix"/>
<feColorMatrix in="SourceAlpha" type="matrix" values="0 0 0 0 0 0 0 0 0 0 0 0 0 0 0 0 0 0 127 0" result="hardAlpha"/>
<feOffset dx="-5" dy="5"/>
<feColorMatrix type="matrix" values="0 0 0 0 0 0 0 0 0 0 0 0 0 0 0 0 0 0 1 0"/>
<feBlend mode="normal" in2="BackgroundImageFix" result="effect1_dropShadow_138_4"/>
<feBlend mode="normal" in="SourceGraphic" in2="effect1_dropShadow_138_4" result="shape"/>
</filter>
</defs>
</svg>
