<svg width="153" height="153" viewBox="0 0 153 153" fill="none" xmlns="http://www.w3.org/2000/svg">
<path d="M95.5956 61.9977C85.0628 61.8364 76.933 53.2413 77.0004 42.3649C77.0678 31.5346 85.9162 22.6859 96.3816 23.0086C106.847 23.3081 115.089 32.0415 114.999 42.7566C114.909 53.6561 106.331 62.159 95.5956 61.9977Z" fill="black" stroke="black" stroke-miterlimit="10"/>
<path d="M56.9016 140L44.9186 123.211C61.8813 110.815 68.2935 88.2078 59.4938 71.7411C53.2408 60.0579 40.0299 52.7445 25 52.6985L25.0682 32C47.6017 32.069 67.6795 43.5221 77.5024 61.8978C91.3272 87.7479 82.4593 121.325 56.9016 139.977V140Z" fill="black" stroke="black" stroke-miterlimit="10"/>
<path d="M108.085 51.9977C97.275 51.8364 88.9313 43.2413 89.0004 32.3649C89.0696 21.5346 98.1509 12.6859 108.892 13.0086C119.632 13.3081 128.091 22.0415 127.999 32.7566C127.907 43.6561 119.102 52.159 108.085 51.9977Z" fill="white" stroke="black" stroke-miterlimit="10"/>
<path d="M69.9016 130L57.9186 113.211C74.8813 100.815 81.2934 78.2078 72.4938 61.7411C66.2408 50.0579 53.0299 42.7445 38 42.6985L38.0682 22C60.6017 22.069 80.6796 33.5221 90.5024 51.8978C104.327 77.7479 95.4593 111.325 69.9016 129.977V130Z" fill="white" stroke="black" stroke-miterlimit="10"/>
</svg>
