<svg width="161" height="58" viewBox="0 0 161 58" fill="none" xmlns="http://www.w3.org/2000/svg">
<g clip-path="url(#clip0_129_2)">
<path d="M7.2545 3.25682V44.6678H0.324463V3.25682H7.2545Z" fill="black" stroke="black" stroke-miterlimit="10"/>
<path d="M17.3121 5.534C19.5832 5.534 21.4585 7.40894 21.4585 9.67963C21.4585 11.9503 19.5832 13.8253 17.3121 13.8253C15.041 13.8253 13.1658 11.9503 13.1658 9.67963C13.1658 7.40894 15.041 5.534 17.3121 5.534ZM20.7771 20.0729V44.6678H13.8471V20.0729H20.7771Z" fill="black" stroke="black" stroke-miterlimit="10"/>
<path d="M27.3633 20.0729H34.2933V23.2519C35.5976 21.4353 37.927 19.2749 41.9047 19.2749C44.0654 19.2749 47.245 19.8978 49.1786 22.2852C50.8852 24.3872 51.1123 26.8266 51.1123 29.2141V44.6678H44.1822V31.2642C44.1822 29.9018 44.1238 27.7414 42.878 26.4373C41.8009 25.302 40.3214 25.1852 39.6401 25.1852C37.8232 25.1852 36.4022 25.808 35.3769 27.3456C34.3517 28.9351 34.2998 30.6998 34.2998 32.1141V44.6678H27.3698V20.0729H27.3633Z" fill="black" stroke="black" stroke-miterlimit="10"/>
<path d="M64.635 3.25682V29.0454L73.8361 20.0729H82.8101L71.2795 30.862L83.7186 44.6678H74.5174L65.3682 34.1577L64.6285 34.8389V44.6678H57.6985V3.25682H64.6285H64.635Z" fill="black" stroke="black" stroke-miterlimit="10"/>
<path d="M93.7178 25.9832V44.6743H86.7878V25.9832H84.0625V20.0729H86.7878V11.6649H93.7178V20.0729H98.4871V25.9832H93.7178Z" fill="black" stroke="black" stroke-miterlimit="10"/>
<path d="M136.985 57.6756H130.055V20.0729H136.985V23.2519C138.062 21.7208 140.45 19.2749 144.999 19.2749C147.159 19.2749 150.624 19.7875 153.408 22.5707C155.225 24.3872 157.1 27.4559 157.1 32.3412C157.1 37.9076 154.66 40.9179 153.239 42.2803C151.364 44.0385 148.522 45.4593 144.888 45.4593C143.182 45.4593 139.717 45.1738 136.991 41.4823V57.6691L136.985 57.6756ZM138.633 27.0602C137.102 28.3642 136.304 30.0705 136.304 32.3412C136.304 34.6118 137.212 36.4868 138.575 37.6805C139.483 38.4785 140.963 39.3284 143.117 39.3284C145.388 39.3284 146.867 38.4201 147.776 37.5702C149.255 36.2078 149.937 34.1642 149.937 32.3412C149.937 30.5181 149.197 28.481 147.834 27.1705C146.582 26.0351 144.765 25.4123 143.117 25.4123C141.3 25.4123 139.879 25.9248 138.627 27.0602H138.633Z" fill="black" stroke="black" stroke-miterlimit="10"/>
<path d="M121.49 28.3642C118.447 28.3188 116.098 25.8989 116.117 22.8367C116.137 19.7875 118.693 17.2962 121.717 17.387C124.741 17.4714 127.122 19.9302 127.096 22.947C127.07 26.0157 124.591 28.4096 121.49 28.3642Z" fill="black" stroke="black" stroke-miterlimit="10"/>
<path d="M110.627 50.4159L107.208 45.6799C112.049 42.183 113.878 35.8056 111.367 31.1604C109.583 27.8646 105.813 25.8016 101.524 25.7886L101.543 19.9497C107.974 19.9691 113.703 23.2 116.506 28.3837C120.451 35.6758 117.921 45.1479 110.627 50.4094V50.4159Z" fill="black" stroke="black" stroke-miterlimit="10"/>
<path d="M10.8362 0.324387V41.7353H3.89966V0.324387H10.8297H10.8362Z" fill="#F7F257" stroke="black" stroke-miterlimit="10"/>
<path d="M20.8873 2.59508C23.1584 2.59508 25.0336 4.47002 25.0336 6.74072C25.0336 9.01141 23.1584 10.8864 20.8873 10.8864C18.6162 10.8864 16.741 9.01141 16.741 6.74072C16.741 4.47002 18.6162 2.59508 20.8873 2.59508ZM24.3523 17.134V41.7289H17.4223V17.1405H24.3523V17.134Z" fill="#F7F257" stroke="black" stroke-miterlimit="10"/>
<path d="M30.9451 17.1405H37.8751V20.3195C39.1794 18.5029 41.5088 16.3425 45.4865 16.3425C47.6472 16.3425 50.8267 16.9653 52.7604 19.3528C54.467 21.4548 54.6941 23.8942 54.6941 26.2817V41.7354H47.764V28.3318C47.764 26.9694 47.7056 24.809 46.4598 23.5049C45.3826 22.3696 43.9032 22.2528 43.2219 22.2528C41.405 22.2528 39.984 22.8756 38.9587 24.4132C37.9335 26.0027 37.8816 27.7673 37.8816 29.1817V41.7354H30.9516V17.1405H30.9451Z" fill="#F7F257" stroke="black" stroke-miterlimit="10"/>
<path d="M68.2102 0.324387V26.113L77.4113 17.1405H86.3853L74.8547 27.9295L87.2937 41.7353H78.0926L68.9434 31.2253L68.2037 31.9065V41.7353H61.2737V0.324387H68.2037H68.2102Z" fill="#F7F257" stroke="black" stroke-miterlimit="10"/>
<path d="M97.2994 23.0443V41.7353H90.3693V23.0443H87.644V17.134H90.3693V8.72595H97.2994V17.134H102.069V23.0443H97.2994Z" fill="#F7F257" stroke="black" stroke-miterlimit="10"/>
<path d="M140.567 54.7432H133.637V17.1405H140.567V20.3195C141.644 18.7884 144.032 16.3425 148.58 16.3425C150.741 16.3425 154.206 16.855 156.99 19.6383C158.807 21.4548 160.682 24.5235 160.682 29.4087C160.682 34.9752 158.242 37.9855 156.821 39.3479C154.946 41.1061 152.104 42.5269 148.47 42.5269C146.764 42.5269 143.299 42.2414 140.573 38.5499V54.7367L140.567 54.7432ZM142.215 24.1277C140.684 25.4318 139.885 27.138 139.885 29.4087C139.885 31.6794 140.794 33.5544 142.157 34.7481C143.065 35.5461 144.544 36.396 146.699 36.396C148.97 36.396 150.449 35.4877 151.358 34.6378C152.837 33.2754 153.518 31.2318 153.518 29.4087C153.518 27.5857 152.779 25.5486 151.416 24.238C150.164 23.1027 148.347 22.4799 146.699 22.4799C144.882 22.4799 143.461 22.9924 142.208 24.1277H142.215Z" fill="#F7F257" stroke="black" stroke-miterlimit="10"/>
<path d="M125.071 25.4318C122.028 25.3864 119.679 22.9664 119.699 19.9043C119.718 16.855 122.275 14.3638 125.298 14.4546C128.322 14.5389 130.704 16.9978 130.678 20.0145C130.652 23.0832 128.173 25.4772 125.071 25.4318Z" fill="#F7F257" stroke="black" stroke-miterlimit="10"/>
<path d="M114.209 47.4834L110.79 42.7474C115.63 39.2506 117.46 32.8732 114.949 28.228C113.165 24.9322 109.395 22.8691 105.105 22.8562L105.125 17.0172C111.555 17.0367 117.285 20.2676 120.088 25.4512C124.033 32.7434 121.503 42.2154 114.209 47.477V47.4834Z" fill="#F7F257" stroke="black" stroke-miterlimit="10"/>
</g>
<defs>
<clipPath id="clip0_129_2">
<rect width="161" height="58" fill="white"/>
</clipPath>
</defs>
</svg>
