<svg width="158" height="56" viewBox="0 0 158 56" fill="none" xmlns="http://www.w3.org/2000/svg">
<path d="M7.83618 0.324387V41.7353H0.899658V0.324387H7.82969H7.83618Z" fill="#F7F257" stroke="black" stroke-miterlimit="10"/>
<path d="M17.8873 2.59508C20.1584 2.59508 22.0336 4.47002 22.0336 6.74071C22.0336 9.01141 20.1584 10.8864 17.8873 10.8864C15.6162 10.8864 13.741 9.01141 13.741 6.74071C13.741 4.47002 15.6162 2.59508 17.8873 2.59508ZM21.3523 17.134V41.7289H14.4223V17.1405H21.3523V17.134Z" fill="#F7F257" stroke="black" stroke-miterlimit="10"/>
<path d="M27.9451 17.1405H34.8751V20.3195C36.1794 18.5029 38.5088 16.3425 42.4865 16.3425C44.6472 16.3425 47.8267 16.9653 49.7604 19.3528C51.467 21.4548 51.6941 23.8942 51.6941 26.2817V41.7354H44.764V28.3318C44.764 26.9694 44.7056 24.809 43.4598 23.5049C42.3826 22.3696 40.9032 22.2528 40.2219 22.2528C38.405 22.2528 36.984 22.8756 35.9587 24.4132C34.9335 26.0027 34.8816 27.7673 34.8816 29.1817V41.7354H27.9516V17.1405H27.9451Z" fill="#F7F257" stroke="black" stroke-miterlimit="10"/>
<path d="M65.2102 0.324387V26.113L74.4113 17.1405H83.3853L71.8547 27.9295L84.2937 41.7353H75.0926L65.9434 31.2253L65.2037 31.9065V41.7353H58.2737V0.324387H65.2037H65.2102Z" fill="#F7F257" stroke="black" stroke-miterlimit="10"/>
<path d="M94.2994 23.0443V41.7353H87.3693V23.0443H84.644V17.134H87.3693V8.72595H94.2994V17.134H99.0686V23.0443H94.2994Z" fill="#F7F257" stroke="black" stroke-miterlimit="10"/>
<path d="M137.567 54.7432H130.637V17.1405H137.567V20.3195C138.644 18.7884 141.032 16.3425 145.58 16.3425C147.741 16.3425 151.206 16.855 153.99 19.6383C155.807 21.4548 157.682 24.5235 157.682 29.4087C157.682 34.9752 155.242 37.9855 153.821 39.3479C151.946 41.106 149.104 42.5269 145.47 42.5269C143.764 42.5269 140.299 42.2414 137.573 38.5499V54.7367L137.567 54.7432ZM139.215 24.1277C137.684 25.4318 136.885 27.138 136.885 29.4087C136.885 31.6794 137.794 33.5544 139.157 34.7481C140.065 35.5461 141.544 36.396 143.699 36.396C145.97 36.396 147.449 35.4877 148.358 34.6378C149.837 33.2754 150.518 31.2318 150.518 29.4087C150.518 27.5857 149.779 25.5486 148.416 24.238C147.164 23.1027 145.347 22.4799 143.699 22.4799C141.882 22.4799 140.461 22.9924 139.208 24.1277H139.215Z" fill="#F7F257" stroke="black" stroke-miterlimit="10"/>
<path d="M122.071 25.4318C119.028 25.3864 116.679 22.9664 116.699 19.9043C116.718 16.855 119.275 14.3638 122.298 14.4546C125.322 14.5389 127.704 16.9978 127.678 20.0145C127.652 23.0832 125.173 25.4772 122.071 25.4318Z" fill="#F7F257" stroke="black" stroke-miterlimit="10"/>
<path d="M111.209 47.4834L107.79 42.7474C112.63 39.2506 114.46 32.8732 111.949 28.228C110.165 24.9322 106.395 22.8691 102.105 22.8562L102.125 17.0172C108.555 17.0367 114.285 20.2676 117.088 25.4512C121.033 32.7434 118.503 42.2154 111.209 47.477V47.4834Z" fill="#F7F257" stroke="black" stroke-miterlimit="10"/>
</svg>
