<svg width="158" height="56" viewBox="0 0 158 56" fill="none" xmlns="http://www.w3.org/2000/svg">
<path d="M7.2545 1.25682V42.6678H0.324463V1.25682H7.2545Z" fill="black" stroke="black" stroke-miterlimit="10"/>
<path d="M17.3121 3.534C19.5832 3.534 21.4585 5.40894 21.4585 7.67963C21.4585 9.95033 19.5832 11.8253 17.3121 11.8253C15.041 11.8253 13.1658 9.95033 13.1658 7.67963C13.1658 5.40894 15.041 3.534 17.3121 3.534ZM20.7771 18.0729V42.6678H13.8471V18.0729H20.7771Z" fill="black" stroke="black" stroke-miterlimit="10"/>
<path d="M27.3633 18.0729H34.2933V21.2519C35.5976 19.4353 37.927 17.2749 41.9047 17.2749C44.0654 17.2749 47.245 17.8978 49.1786 20.2852C50.8852 22.3872 51.1123 24.8266 51.1123 27.2141V42.6678H44.1822V29.2642C44.1822 27.9018 44.1238 25.7414 42.878 24.4373C41.8009 23.302 40.3214 23.1852 39.6401 23.1852C37.8232 23.1852 36.4022 23.808 35.3769 25.3456C34.3517 26.9351 34.2998 28.6998 34.2998 30.1141V42.6678H27.3698V18.0729H27.3633Z" fill="black" stroke="black" stroke-miterlimit="10"/>
<path d="M64.635 1.25682V27.0454L73.8361 18.0729H82.8101L71.2795 28.862L83.7186 42.6678H74.5174L65.3682 32.1577L64.6285 32.8389V42.6678H57.6985V1.25682H64.6285H64.635Z" fill="black" stroke="black" stroke-miterlimit="10"/>
<path d="M93.7178 23.9832V42.6743H86.7878V23.9832H84.0625V18.0729H86.7878V9.66487H93.7178V18.0729H98.4871V23.9832H93.7178Z" fill="black" stroke="black" stroke-miterlimit="10"/>
<path d="M136.985 55.6756H130.055V18.0729H136.985V21.2519C138.062 19.7208 140.45 17.2749 144.999 17.2749C147.159 17.2749 150.624 17.7875 153.408 20.5707C155.225 22.3872 157.1 25.4559 157.1 30.3412C157.1 35.9076 154.66 38.9179 153.239 40.2803C151.364 42.0385 148.522 43.4593 144.888 43.4593C143.182 43.4593 139.717 43.1738 136.991 39.4823V55.6691L136.985 55.6756ZM138.633 25.0602C137.102 26.3642 136.304 28.0705 136.304 30.3412C136.304 32.6118 137.212 34.4868 138.575 35.6805C139.483 36.4785 140.963 37.3284 143.117 37.3284C145.388 37.3284 146.867 36.4201 147.776 35.5702C149.255 34.2078 149.937 32.1642 149.937 30.3412C149.937 28.5181 149.197 26.481 147.834 25.1705C146.582 24.0351 144.765 23.4123 143.117 23.4123C141.3 23.4123 139.879 23.9248 138.627 25.0602H138.633Z" fill="black" stroke="black" stroke-miterlimit="10"/>
<path d="M121.49 26.3642C118.447 26.3188 116.098 23.8989 116.117 20.8367C116.137 17.7875 118.693 15.2962 121.717 15.387C124.741 15.4714 127.122 17.9302 127.096 20.947C127.07 24.0157 124.591 26.4096 121.49 26.3642Z" fill="black" stroke="black" stroke-miterlimit="10"/>
<path d="M110.627 48.4159L107.208 43.6799C112.049 40.183 113.878 33.8056 111.367 29.1604C109.583 25.8646 105.813 23.8016 101.524 23.7886L101.543 17.9497C107.974 17.9691 113.703 21.2 116.506 26.3837C120.451 33.6758 117.921 43.1479 110.627 48.4094V48.4159Z" fill="black" stroke="black" stroke-miterlimit="10"/>
</svg>
