<svg xmlns="http://www.w3.org/2000/svg" xmlns:xlink="http://www.w3.org/1999/xlink" width="158" zoomAndPan="magnify" viewBox="0 0 118.5 42" height="56" preserveAspectRatio="xMidYMid meet" version="1.0"><defs><clipPath id="d84c25ee91"><path d="M 7 1.464844 L 13 1.464844 L 13 30 L 7 30 Z M 7 1.464844 " clip-rule="nonzero"/></clipPath><clipPath id="b4127ac23d"><path d="M 7 1.464844 L 13 1.464844 L 13 31 L 7 31 Z M 7 1.464844 " clip-rule="nonzero"/></clipPath><clipPath id="9a9e0bf6d3"><path d="M 6.726562 1.464844 L 32 1.464844 L 32 39.71875 L 6.726562 39.71875 Z M 6.726562 1.464844 " clip-rule="nonzero"/></clipPath><clipPath id="2f5636675f"><path d="M 16 2 L 52 2 L 52 39.71875 L 16 39.71875 Z M 16 2 " clip-rule="nonzero"/></clipPath><clipPath id="e18887b470"><path d="M 46 1.464844 L 65 1.464844 L 65 30 L 46 30 Z M 46 1.464844 " clip-rule="nonzero"/></clipPath><clipPath id="67d8fb05c0"><path d="M 36 1.464844 L 75 1.464844 L 75 39.71875 L 36 39.71875 Z M 36 1.464844 " clip-rule="nonzero"/></clipPath><clipPath id="c53b55e299"><path d="M 96 12 L 114.863281 12 L 114.863281 39 L 96 39 Z M 96 12 " clip-rule="nonzero"/></clipPath><clipPath id="5bf7221580"><path d="M 86 2 L 114.863281 2 L 114.863281 39.71875 L 86 39.71875 Z M 86 2 " clip-rule="nonzero"/></clipPath><clipPath id="38ae99dc25"><path d="M 76 1.464844 L 104 1.464844 L 104 29 L 76 29 Z M 76 1.464844 " clip-rule="nonzero"/></clipPath><clipPath id="5d1adf0cf4"><path d="M 66 3 L 98 3 L 98 39.71875 L 66 39.71875 Z M 66 3 " clip-rule="nonzero"/></clipPath></defs><g clip-path="url(#d84c25ee91)"><path fill="#ffffff" d="M 7.351562 1.6875 L 12.101562 1.6875 L 12.101562 29.976562 L 7.351562 29.976562 Z M 7.351562 1.6875 " fill-opacity="1" fillRule="nonzero"/></g><g clip-path="url(#b4127ac23d)"><path stroke-linecap="butt" transform="matrix(0.684266, 0, 0, 0.683103, 6.737812, 1.465771)" fill="none" stroke-linejoin="miter" d="M 0.896946 0.324591 L 7.838687 0.324591 L 7.838687 41.737197 L 0.896946 41.737197 Z M 0.896946 0.324591 " stroke="#000000" stroke-width="1" stroke-opacity="1" stroke-miterlimit="10"/></g><path fill="#ffffff" d="M 18.976562 3.238281 C 20.53125 3.238281 21.816406 4.519531 21.816406 6.070312 C 21.816406 7.621094 20.53125 8.902344 18.976562 8.902344 C 17.421875 8.902344 16.140625 7.621094 16.140625 6.070312 C 16.140625 4.519531 17.421875 3.238281 18.976562 3.238281 Z M 21.347656 13.171875 L 21.347656 29.972656 L 16.605469 29.972656 L 16.605469 13.175781 L 21.347656 13.175781 Z M 21.347656 13.171875 " fill-opacity="1" fillRule="nonzero"/><g clip-path="url(#9a9e0bf6d3)"><path stroke-linecap="butt" transform="matrix(0.684266, 0, 0, 0.683103, 6.737812, 1.465771)" fill="none" stroke-linejoin="miter" d="M 17.885943 2.594793 C 20.157993 2.594793 22.036145 4.470427 22.036145 6.740629 C 22.036145 9.010831 20.157993 10.886464 17.885943 10.886464 C 15.613893 10.886464 13.74145 9.010831 13.74145 6.740629 C 13.74145 4.470427 15.613893 2.594793 17.885943 2.594793 Z M 21.351105 17.136668 L 21.351105 41.731479 L 14.420782 41.731479 L 14.420782 17.142387 L 21.351105 17.142387 Z M 21.351105 17.136668 " stroke="#000000" stroke-width="1" stroke-opacity="1" stroke-miterlimit="10"/></g><path fill="#ffffff" d="M 25.859375 13.175781 L 30.601562 13.175781 L 30.601562 15.347656 C 31.496094 14.105469 33.089844 12.628906 35.808594 12.628906 C 37.289062 12.628906 39.464844 13.054688 40.789062 14.6875 C 41.953125 16.121094 42.109375 17.789062 42.109375 19.417969 L 42.109375 29.976562 L 37.367188 29.976562 L 37.367188 20.820312 C 37.367188 19.886719 37.328125 18.414062 36.476562 17.523438 C 35.738281 16.746094 34.726562 16.667969 34.261719 16.667969 C 33.015625 16.667969 32.042969 17.09375 31.34375 18.140625 C 30.640625 19.226562 30.605469 20.433594 30.605469 21.398438 L 30.605469 29.976562 L 25.863281 29.976562 L 25.863281 13.175781 Z M 25.859375 13.175781 " fill-opacity="1" fillRule="nonzero"/><g clip-path="url(#2f5636675f)"><path stroke-linecap="butt" transform="matrix(0.684266, 0, 0, 0.683103, 6.737812, 1.465771)" fill="none" stroke-linejoin="miter" d="M 27.944617 17.142387 L 34.87494 17.142387 L 34.87494 20.321814 C 36.182226 18.503364 38.511362 16.341812 42.484595 16.341812 C 44.648181 16.341812 47.827909 16.965117 49.763148 19.355405 C 51.464331 21.454055 51.692678 23.89581 51.692678 26.28038 L 51.692678 41.737197 L 44.762354 41.737197 L 44.762354 28.333283 C 44.762354 26.966587 44.705267 24.810753 43.460778 23.506959 C 42.381839 22.368998 40.903294 22.254631 40.223963 22.254631 C 38.402898 22.254631 36.981439 22.877935 35.959587 24.410465 C 34.932027 26.000178 34.880649 27.767162 34.880649 29.179605 L 34.880649 41.737197 L 27.950326 41.737197 L 27.950326 17.142387 Z M 27.944617 17.142387 " stroke="#000000" stroke-width="1" stroke-opacity="1" stroke-miterlimit="10"/></g><g clip-path="url(#e18887b470)"><path fill="#ffffff" d="M 51.359375 1.6875 L 51.359375 19.304688 L 57.65625 13.175781 L 63.796875 13.175781 L 55.90625 20.542969 L 64.417969 29.976562 L 58.121094 29.976562 L 51.859375 22.796875 L 51.355469 23.261719 L 51.355469 29.976562 L 46.613281 29.976562 L 46.613281 1.6875 Z M 51.359375 1.6875 " fill-opacity="1" fillRule="nonzero"/></g><g clip-path="url(#67d8fb05c0)"><path stroke-linecap="butt" transform="matrix(0.684266, 0, 0, 0.683103, 6.737812, 1.465771)" fill="none" stroke-linejoin="miter" d="M 65.210804 0.324591 L 65.210804 26.114546 L 74.413178 17.142387 L 83.387204 17.142387 L 71.855694 27.927277 L 84.294883 41.737197 L 75.092509 41.737197 L 65.941514 31.22679 L 65.205096 31.907279 L 65.205096 41.737197 L 58.274772 41.737197 L 58.274772 0.324591 Z M 65.210804 0.324591 " stroke="#000000" stroke-width="1" stroke-opacity="1" stroke-miterlimit="10"/></g><path stroke-linecap="butt" transform="matrix(0.684266, 0, 0, 0.683103, 6.737812, 1.465771)" fill-opacity="1" fill="#ffffff" fillRule="nonzero" stroke-linejoin="miter" d="M 94.302178 23.043769 L 94.302178 41.737197 L 87.371855 41.737197 L 87.371855 23.043769 L 84.643111 23.043769 L 84.643111 17.136668 L 87.371855 17.136668 L 87.371855 8.724911 L 94.302178 8.724911 L 94.302178 17.136668 L 99.068916 17.136668 L 99.068916 23.043769 Z M 94.302178 23.043769 " stroke="#000000" stroke-width="1" stroke-opacity="1" stroke-miterlimit="10"/><g clip-path="url(#c53b55e299)"><path fill="#ffffff" d="M 100.871094 38.859375 L 96.128906 38.859375 L 96.128906 13.175781 L 100.871094 13.175781 L 100.871094 15.347656 C 101.605469 14.300781 103.242188 12.628906 106.351562 12.628906 C 107.832031 12.628906 110.203125 12.980469 112.109375 14.878906 C 113.351562 16.121094 114.632812 18.21875 114.632812 21.554688 C 114.632812 25.359375 112.964844 27.414062 111.992188 28.34375 C 110.710938 29.546875 108.765625 30.515625 106.277344 30.515625 C 105.109375 30.515625 102.738281 30.320312 100.875 27.800781 L 100.875 38.855469 Z M 101.996094 17.949219 C 100.949219 18.839844 100.402344 20.003906 100.402344 21.554688 C 100.402344 23.105469 101.027344 24.386719 101.957031 25.203125 C 102.578125 25.746094 103.589844 26.328125 105.066406 26.328125 C 106.621094 26.328125 107.632812 25.707031 108.253906 25.125 C 109.265625 24.195312 109.730469 22.800781 109.730469 21.554688 C 109.730469 20.308594 109.226562 18.917969 108.292969 18.023438 C 107.4375 17.246094 106.195312 16.820312 105.066406 16.820312 C 103.824219 16.820312 102.851562 17.171875 101.992188 17.949219 Z M 101.996094 17.949219 " fill-opacity="1" fillRule="nonzero"/></g><g clip-path="url(#5bf7221580)"><path stroke-linecap="butt" transform="matrix(0.684266, 0, 0, 0.683103, 6.737812, 1.465771)" fill="none" stroke-linejoin="miter" d="M 137.568176 54.740824 L 130.637852 54.740824 L 130.637852 17.142387 L 137.568176 17.142387 L 137.568176 20.321814 C 138.641405 18.789284 141.033337 16.341812 145.577438 16.341812 C 147.741023 16.341812 151.206185 16.856467 153.992015 19.635606 C 155.807371 21.454055 157.679814 24.524833 157.679814 29.408341 C 157.679814 34.978056 155.242213 37.985931 153.820755 39.346909 C 151.948311 41.108174 149.105395 42.526336 145.468973 42.526336 C 143.762081 42.526336 140.296919 42.240416 137.573884 38.552052 L 137.573884 54.735106 Z M 139.212272 24.130264 C 137.682349 25.434057 136.883136 27.138139 136.883136 29.408341 C 136.883136 31.678543 137.796523 33.554176 139.155186 34.749321 C 140.062864 35.544177 141.541409 36.396218 143.699286 36.396218 C 145.971336 36.396218 147.449881 35.486993 148.357559 34.634953 C 149.836104 33.273975 150.515436 31.232508 150.515436 29.408341 C 150.515436 27.584173 149.779017 25.548425 148.414646 24.238913 C 147.164447 23.100953 145.349091 22.477648 143.699286 22.477648 C 141.883929 22.477648 140.462471 22.992303 139.206564 24.130264 Z M 139.212272 24.130264 " stroke="#000000" stroke-width="1" stroke-opacity="1" stroke-miterlimit="10"/></g><path fill="#ffffff" d="M 90.265625 18.839844 C 88.183594 18.808594 86.578125 17.152344 86.589844 15.0625 C 86.605469 12.980469 88.355469 11.277344 90.421875 11.339844 C 92.492188 11.398438 94.121094 13.078125 94.105469 15.136719 C 94.085938 17.234375 92.390625 18.871094 90.265625 18.839844 Z M 90.265625 18.839844 " fill-opacity="1" fillRule="nonzero"/><g clip-path="url(#38ae99dc25)"><path stroke-linecap="butt" transform="matrix(0.684266, 0, 0, 0.683103, 6.737812, 1.465771)" fill="none" stroke-linejoin="miter" d="M 122.069141 25.434057 C 119.026421 25.38831 116.680158 22.963711 116.697284 19.904371 C 116.720119 16.856467 119.277602 14.363247 122.297488 14.454742 C 125.323082 14.540518 127.703597 16.999427 127.680762 20.01302 C 127.652219 23.083798 125.174657 25.479805 122.069141 25.434057 Z M 122.069141 25.434057 " stroke="#000000" stroke-width="1" stroke-opacity="1" stroke-miterlimit="10"/></g><path fill="#ffffff" d="M 82.835938 33.902344 L 80.496094 30.667969 C 83.808594 28.277344 85.058594 23.921875 83.339844 20.75 C 82.121094 18.496094 79.539062 17.085938 76.605469 17.078125 L 76.617188 13.089844 C 81.019531 13.105469 84.9375 15.3125 86.855469 18.851562 C 89.554688 23.832031 87.824219 30.304688 82.835938 33.898438 Z M 82.835938 33.902344 " fill-opacity="1" fillRule="nonzero"/><g clip-path="url(#5d1adf0cf4)"><path stroke-linecap="butt" transform="matrix(0.684266, 0, 0, 0.683103, 6.737812, 1.465771)" fill="none" stroke-linejoin="miter" d="M 111.211254 47.484183 L 107.791762 42.749353 C 112.632712 39.249696 114.459486 32.873687 111.947672 28.230352 C 110.166568 24.930839 106.393138 22.866499 102.105928 22.855062 L 102.123054 17.016582 C 108.556723 17.039456 114.282518 20.270348 117.085474 25.451213 C 121.030164 32.742164 118.501223 42.217543 111.211254 47.478465 Z M 111.211254 47.484183 " stroke="#000000" stroke-width="1" stroke-opacity="1" stroke-miterlimit="10"/></g></svg>