<svg xmlns="http://www.w3.org/2000/svg" viewBox="0 0 13076.01 3808.58"><g id="Layer_2" data-name="Layer 2"><g id="Layer_2-2" data-name="Layer 2"><rect y="3174.86" width="633.72" height="633.72" rx="95.35" fill="#e94f84"/><path d="M3070.66,413.32H1114c-183.37,0-332,148.65-332,332V2702c0,183.37,148.65,332,332,332h1956.7c183.37,0,332-148.65,332-332V745.34C3402.68,562,3254,413.32,3070.66,413.32ZM3018.6,2564.45a91,91,0,0,1-91,91H1257.05a91,91,0,0,1-91-91V893.94a91,91,0,0,1,91-91H2927.56a91,91,0,0,1,91,91Z" fill="#e94f84"/><path d="M4934.91,2650.28c-35.37,0-148.33,63.79-243.79,63.79s-262.95-85.79-262.95-211.81v-1264H4917a62.92,62.92,0,0,0,62.92-62.92V1006.54A62.92,62.92,0,0,0,4917,943.62H4428.17v-437c0-26.27,0-76.15-64.62-76.15H4143.7c-38.28,0-60,24.51-60,74.58V943.62h-273.6a62.92,62.92,0,0,0-62.92,62.92v168.85a62.92,62.92,0,0,0,62.92,62.92h273.6V2527.44c0,374.63,297.62,480,554.84,480S4998,2926.26,4998,2892.76V2807C4998,2685.91,4970.29,2650.28,4934.91,2650.28Z" fill="#2b2a2a"/><path d="M7035.19,1032c15.49-40-17.37-88.39-88.39-88.39H6760.72c-48.81,0-64.36,31.59-88.39,88.39L6126.06,2503.66,5559.61,1032c-24-56.8-39.57-88.39-88.38-88.39H5285.15c-71,0-103.88,48.39-88.39,88.39l747.56,1942.17a88.5,88.5,0,0,0,1.51,15L5697,3659.52a88.39,88.39,0,0,0,88.39,88.39h186.07a88.39,88.39,0,0,0,88.39-88.39Z" fill="#2b2a2a"/><path d="M8448.43,907.05c-420.26,0-715.59,322.24-715.59,357.71V984.84a41.23,41.23,0,0,0-41.22-41.22H7466.26A41.22,41.22,0,0,0,7425,984.84v2675.5a87.57,87.57,0,0,0,87.57,87.57h178.71a87.57,87.57,0,0,0,87.57-87.57V2724.76c71.76,94.94,267.18,302.63,604.05,302.63,436.62,0,810.48-351.8,810.48-1077.68S8841.39,907.05,8448.43,907.05Zm-95.5,1819.31c-341.1,0-574-391.88-574-391.88V1621.19c110.93-189.76,297-410.49,563.12-410.49,466.64,0,482.31,545.26,482.31,804.5S8694,2726.36,8352.93,2726.36Z" fill="#2b2a2a"/><path d="M10580,907.05c-683.48,0-990.6,449.73-990.6,1061.48,0,587,232.79,1052.5,916.3,1052.5s1020.32-470.54,1020.32-1052.5S11263.51,907.05,10580,907.05Zm-49.53,1819.31C10246,2726.36,9956,2582.85,9956,1964s328.22-755.81,601.79-755.81c232.88,0,586.93,122.59,586.93,755.81S10815.05,2726.36,10530.5,2726.36Z" fill="#2b2a2a"/><path d="M12736.17,0c-621.33,0-621.33,526.45-621.33,686.55V961.77h-258.2a59,59,0,0,0-59,59v159.86a59,59,0,0,0,59,59h258.2V2904.8a78.13,78.13,0,0,0,78.13,78.13h203.6a78.13,78.13,0,0,0,78.12-78.13V1239.68H12896a59,59,0,0,0,59-59V1020.79a59,59,0,0,0-59-59h-421.34V489.56c0-63.94,94.24-194.29,293.45-194.29s221.35,59,253.32,59c41.81,0,54.55-22.14,54.55-56V130.49C13076,91.14,12955.05,0,12736.17,0Z" fill="#2b2a2a"/></g></g></svg>